<svg id="Filled" height="512" viewBox="0 0 512 512" width="512" xmlns="http://www.w3.org/2000/svg"><g><g><g><g><g><rect fill="#fa5d3f" height="464" rx="10" width="320" x="8" y="40"/><path d="m40 72h256v400h-256z" fill="#fdf8f7"/><path d="m198.992 32a32.011 32.011 0 0 0 -61.984 0h-55.008a10 10 0 0 0 -10 10v44a10 10 0 0 0 10 10h172a10 10 0 0 0 10-10v-44a10 10 0 0 0 -10-10z" fill="#fac850"/></g><path d="m224 184h-40v-40h-32v40h-40v32h40v40h32v-40h40z" fill="#fac850"/></g><g><path d="m316.273 462.834c-37.609-30.023-62.867-73.635-71.12-122.8l-.21-1.333-12.943-86.979 135.994-67.722 136.006 67.729-13.148 88.164-.06.367c-8.348 49.7-33.937 93.59-72.062 123.634l-50.894 40.106z" fill="#f1fcfb"/><g><path d="m408 312v-24h-80v24l-12.641 18.962a20 20 0 0 0 -3.359 11.094v95.944a10 10 0 0 0 10 10h92a10 10 0 0 0 10-10v-95.944a20 20 0 0 0 -3.359-11.094z" fill="#f1fcfb"/><g fill="#8ae6da"><path d="m312 344h112v104h-112z"/><rect height="40" rx="10" width="112" x="312" y="248"/></g></g></g></g><path d="m72 304h48v16h-48z"/><path d="m72 384h48v16h-48z"/><path d="m72 424h144v16h-144z"/><path d="m72 344h96v16h-96z"/><path d="m96 56h16v16h-16z"/><path d="m224 56h16v16h-16z"/><path d="m152 264h32a8 8 0 0 0 8-8v-32h32a8 8 0 0 0 8-8v-32a8 8 0 0 0 -8-8h-32v-32a8 8 0 0 0 -8-8h-32a8 8 0 0 0 -8 8v32h-32a8 8 0 0 0 -8 8v32a8 8 0 0 0 8 8h32v32a8 8 0 0 0 8 8zm-32-56v-16h32a8 8 0 0 0 8-8v-32h16v32a8 8 0 0 0 8 8h32v16h-32a8 8 0 0 0 -8 8v32h-16v-32a8 8 0 0 0 -8-8z"/><path d="m507.566 244.568-56.25-28.012-7.133 14.322 51.047 25.422-12.281 82.352-.047.284c-6.627 39.459-24.56 75.107-51.242 102.556a18.016 18.016 0 0 0 .34-3.492v-95.944a27.913 27.913 0 0 0 -4.7-15.532l-11.3-16.946v-13.689a18.025 18.025 0 0 0 16-17.889v-20a18.021 18.021 0 0 0 -18-18h-92a18.021 18.021 0 0 0 -18 18v20a18.025 18.025 0 0 0 16 17.889v13.689l-11.3 16.946a27.92 27.92 0 0 0 -4.7 15.532v34.251h16v-24.307h96v86a2 2 0 0 1 -2 2h-92a2 2 0 0 1 -2-2v-47.1h-16v47.1a17.977 17.977 0 0 0 .281 3.176c-26.688-27.449-44.628-63.084-51.226-102.385l-12.287-82.5 127.226-63.354 60.833 30.293 7.133-14.322-64.4-32.07a8 8 0 0 0 -7.133 0l-135.993 67.723a8 8 0 0 0 -4.347 8.338l7.6 51.1h-95.687v16h98.072l2.968 19.942.223 1.415q.222 1.325.461 2.643h-53.724v16h57.239a213.263 213.263 0 0 0 7.771 24h-113.01v16h120v-.089a204.023 204.023 0 0 0 32 47.3v16.79h-240v-384h16v6a18.021 18.021 0 0 0 18 18h109.737v-16h-109.737a2 2 0 0 1 -2-2v-44a2 2 0 0 1 2-2h55.008a8 8 0 0 0 7.748-6.006 24.01 24.01 0 0 1 46.488 0 8 8 0 0 0 7.748 6.006h55.008a2 2 0 0 1 2 2v44a2 2 0 0 1 -2 2h-45.583v16h45.583a18.021 18.021 0 0 0 18-18v-6h16v112h16v-120a8 8 0 0 0 -8-8h-24v-16h46a2 2 0 0 1 2 2v126h16v-126a18.021 18.021 0 0 0 -18-18h-49.04a18 18 0 0 0 -14.96-8h-49.325a40.022 40.022 0 0 0 -73.35 0h-49.325a18 18 0 0 0 -14.96 8h-49.04a18.021 18.021 0 0 0 -18 18v333.812h16v-333.812a2 2 0 0 1 2-2h46v16h-24a8 8 0 0 0 -8 8v400a8 8 0 0 0 8 8h256a8 8 0 0 0 8-8v-9.02q3.563 3.137 7.282 6.106l8.718 6.96v17.954a2 2 0 0 1 -2 2h-300a2 2 0 0 1 -2-2v-92.675h-16v92.675a18.021 18.021 0 0 0 18 18h300a18.021 18.021 0 0 0 18-18v-5.18l26.844 21.432a8 8 0 0 0 9.943.031l50.9-40.106c39.69-31.277 66.325-76.945 75-128.613l.06-.366c.007-.041.013-.083.02-.125l13.148-88.164a8 8 0 0 0 -4.349-8.341zm-93.788 213.042-45.91 36.179-46.6-37.207q-.4-.322-.806-.648.758.066 1.538.066h92a18.109 18.109 0 0 0 1.916-.1q-1.062.862-2.138 1.71zm-92.138-121.61c.119-.2.244-.4.375-.6l12.641-18.961a8 8 0 0 0 1.344-4.439v-16h64v16a8 8 0 0 0 1.344 4.438l12.64 18.961c.132.2.257.4.376.6zm92.36-56h-92a2 2 0 0 1 -2-2v-20a2 2 0 0 1 2-2h92a2 2 0 0 1 2 2v20a2 2 0 0 1 -2 2z"/><path d="m336 368h16v56h-16z"/><path d="m368 368h32v16h-32z"/><path d="m368 408h32v16h-32z"/></g><path d="m160 32h16v16h-16z"/></g></svg>